<?xml version="1.0" standalone="no"?>
<svg width="64" height="64" viewBox="0 0 480 384" version="1.1" xmlns="http://www.w3.org/2000/svg">
  <path d="M352 288c0 43 21 64 64 64s64 -21 64 -64s-21 -64 -64 -64s-64 21 -64 64zM209 288h127c0 -17 5 -33 15 -47c-6 -3 -14 -8 -22 -12s-16 -8 -23 -12s-14 -8 -22 -12s-15 -8 -21 -11s-11 -6 -16 -9s-9 -5 -12 -7s-4 -3 -5 -3c-6 -3 -13 -4 -21 -4s-15 1 -21 4 c-1 1 -15 8 -42 23s-54 29 -81 44s-43 23 -46 25c-7 4 -12 8 -13 11c-1 4 -1 6 1 8s6 2 11 2h191zM277 175c18 11 45 30 83 56c16 -15 34 -23 56 -23v-155c0 -2 -1 -4 -2 -7s-3 -5 -5 -7s-4 -4 -7 -5s-6 -2 -8 -2h-185h-185c-5 0 -11 2 -16 7s-8 9 -8 14v205c0 6 3 8 9 5 c2 -1 11 -7 26 -17s32 -22 53 -36s39 -26 53 -35l-83 -93c-2 -2 -2 -4 -1 -5c2 -1 4 -1 6 1l98 83c16 -10 25 -16 27 -17c6 -3 13 -4 21 -4s15 1 21 4c2 1 11 7 27 17l98 -83c2 -2 5 -2 6 -1s0 3 -2 5z" transform="matrix(1,0,0,-1,0,384)"/>
</svg>